<?xml version="1.0" encoding="UTF-8"?>
<svg version="1.1" xmlns="http://www.w3.org/2000/svg" width="128" height="128">
<path d="M0 0 C0.9213826 -0.00960754 1.8427652 -0.01921509 2.79206848 -0.02911377 C3.78582993 -0.03336365 4.77959137 -0.03761353 5.8034668 -0.04199219 C6.82820602 -0.04769226 7.85294525 -0.05339233 8.90873718 -0.05926514 C11.07830778 -0.06871433 13.24789272 -0.0752488 15.41748047 -0.07910156 C18.7293415 -0.08879884 22.04057977 -0.11982 25.35229492 -0.15136719 C27.4610152 -0.15789825 29.56973991 -0.16314831 31.6784668 -0.16699219 C32.66615555 -0.17933899 33.6538443 -0.19168579 34.67146301 -0.20440674 C40.79881859 -0.18465166 45.3997871 0.38235005 50.11987305 4.69628906 C53.44018555 8.93891059 53.44018555 8.93891059 53.44018555 11.16113281 C54.32061523 11.39832031 55.20104492 11.63550781 56.1081543 11.87988281 C59.79246453 13.29659296 61.88178449 14.97755914 64.75268555 17.66113281 C65.61506836 18.45519531 66.47745117 19.24925781 67.3659668 20.06738281 C70.85434004 23.58860326 70.60181435 25.97967265 70.62768555 30.84863281 C70.59076417 36.03872302 70.11618593 40.22624281 68.44018555 45.16113281 C67.98701106 47.94087272 67.5738959 50.72145381 67.19799805 53.51269531 C65.13352748 60.72770068 58.34802119 64.54971241 52.24194336 68.18994141 C47.95505941 70.50067641 43.36402287 72.10318887 38.7878418 73.73925781 C35.44303587 75.15992217 33.17093952 76.79675907 30.44018555 79.16113281 C26.95436336 80.90404391 23.03120671 80.43057204 19.19018555 80.47363281 C17.91981445 80.51713867 17.91981445 80.51713867 16.6237793 80.56152344 C10.97603454 80.61861573 7.98278044 79.79925859 3.44018555 76.16113281 C2.18649924 75.46275437 0.91738439 74.79052832 -0.37231445 74.16113281 C-1.05293945 73.82726562 -1.73356445 73.49339844 -2.43481445 73.14941406 C-4.56060115 72.16076694 -6.71068182 71.25574651 -8.87231445 70.34863281 C-16.28230865 67.08103121 -24.07042725 63.09313284 -28.55981445 56.16113281 C-29.57719512 53.39697665 -30.21805738 50.60589526 -30.80981445 47.72363281 C-31.0569519 46.53471436 -31.0569519 46.53471436 -31.30908203 45.32177734 C-34.65357694 28.15256522 -34.65357694 28.15256522 -31.2668457 21.69628906 C-27.60636455 17.1981692 -22.79049993 13.66224219 -17.55981445 11.16113281 C-16.89981445 11.16113281 -16.23981445 11.16113281 -15.55981445 11.16113281 C-15.25043945 10.07832031 -15.25043945 10.07832031 -14.93481445 8.97363281 C-13.07847401 5.17657281 -10.96513643 3.66300202 -7.55981445 1.16113281 C-4.72696865 0.21685088 -2.9380649 0.02476097 0 0 Z M-9.76293945 8.70800781 C-12.57299712 12.5443474 -13.24677272 16.8283882 -14.30981445 21.41113281 C-16.32515935 29.59986116 -18.82913867 36.7835745 -23.28344727 43.97265625 C-25.31832799 47.4849954 -25.64224573 48.84802692 -24.59106445 52.84082031 C-19.96005813 60.41073449 -11.72764208 64.50618727 -3.65356445 67.66503906 C-1.38718418 68.39605254 -1.38718418 68.39605254 1.44018555 67.16113281 C1.11018555 65.84113281 0.78018555 64.52113281 0.44018555 63.16113281 C7.08764317 65.79503112 7.08764317 65.79503112 9.06518555 67.84863281 C10.44893382 69.44911073 10.44893382 69.44911073 13.12768555 69.34863281 C13.89081055 69.28675781 14.65393555 69.22488281 15.44018555 69.16113281 C15.93518555 67.67613281 15.93518555 67.67613281 16.44018555 66.16113281 C15.65643555 65.89300781 14.87268555 65.62488281 14.06518555 65.34863281 C11.44018555 64.16113281 11.44018555 64.16113281 9.44018555 61.16113281 C9.00235743 57.7314792 9.07124982 55.8287308 10.75268555 52.78613281 C15.09204401 50.16233467 19.51028056 50.42800582 24.44018555 51.16113281 C27.12768555 52.78613281 27.12768555 52.78613281 28.44018555 55.16113281 C28.93870591 58.57955813 28.83701663 60.42699532 27.19018555 63.47363281 C25.26032244 65.33457224 24.06453302 65.79915385 21.44018555 66.16113281 C21.77018555 67.15113281 22.10018555 68.14113281 22.44018555 69.16113281 C24.68616604 69.58244189 24.68616604 69.58244189 27.44018555 69.16113281 C29.47716172 67.53986607 31.47833139 65.87253751 33.44018555 64.16113281 C35.81518555 63.34863281 35.81518555 63.34863281 37.44018555 63.16113281 C37.44018555 64.48113281 37.44018555 65.80113281 37.44018555 67.16113281 C36.45018555 67.49113281 35.46018555 67.82113281 34.44018555 68.16113281 C36.48984381 69.46286243 36.48984381 69.46286243 39.0925293 68.44628906 C48.06717882 65.10614007 57.27579053 61.3009883 62.4675293 52.86816406 C63.53935799 48.78316235 63.11466692 47.28662664 61.06225586 43.66894531 C60.67134766 43.02699219 60.28043945 42.38503906 59.87768555 41.72363281 C56.75330982 36.12348595 54.56345655 30.93102403 53.19018555 24.66113281 C51.40672769 16.66436888 49.74898717 9.84626206 42.44018555 5.16113281 C39.76018286 4.26779858 38.18192193 4.02669446 35.43115234 4 C34.22926521 3.98558868 34.22926521 3.98558868 33.00309753 3.97088623 C32.14057877 3.96663635 31.27806 3.96238647 30.3894043 3.95800781 C29.05205986 3.9494577 29.05205986 3.9494577 27.68769836 3.94073486 C25.80060003 3.93128932 23.91348523 3.92475265 22.02636719 3.92089844 C19.14903734 3.91120475 16.27242553 3.88018226 13.39526367 3.84863281 C11.55998145 3.84210124 9.72469412 3.83685137 7.8894043 3.83300781 C6.60473518 3.81448761 6.60473518 3.81448761 5.29411316 3.79559326 C-0.80079772 3.81815537 -4.71464448 5.16346028 -9.76293945 8.70800781 Z M55.44018555 17.16113281 C55.44018555 17.82113281 55.44018555 18.48113281 55.44018555 19.16113281 C56.43018555 18.83113281 57.42018555 18.50113281 58.44018555 18.16113281 C57.45018555 17.83113281 56.46018555 17.50113281 55.44018555 17.16113281 Z M-18.55981445 17.16113281 C-19.21981445 17.82113281 -19.87981445 18.48113281 -20.55981445 19.16113281 C-19.56981445 19.16113281 -18.57981445 19.16113281 -17.55981445 19.16113281 C-17.88981445 18.50113281 -18.21981445 17.84113281 -18.55981445 17.16113281 Z M-27.20825195 24.36816406 C-29.63545477 27.58806606 -28.97198833 31.30291504 -28.55981445 35.16113281 C-27.69328031 38.09193955 -27.69328031 38.09193955 -26.55981445 40.16113281 C-22.03284472 34.87966812 -20.23386482 31.16904984 -20.55981445 24.16113281 C-24.05212095 22.97577798 -24.05212095 22.97577798 -27.20825195 24.36816406 Z M59.44018555 23.16113281 C58.18538397 24.21881317 58.18538397 24.21881317 58.06518555 26.59863281 C58.60550046 31.7316245 60.96614161 35.69018198 63.44018555 40.16113281 C64.10018555 39.83113281 64.76018555 39.50113281 65.44018555 39.16113281 C66.74452036 34.85682792 66.7272425 30.61051557 66.44018555 26.16113281 C65.3534356 24.0712905 65.3534356 24.0712905 63.44018555 23.16113281 C62.12018555 23.16113281 60.80018555 23.16113281 59.44018555 23.16113281 Z M16.44018555 54.16113281 C15.78018555 54.82113281 15.12018555 55.48113281 14.44018555 56.16113281 C15.43018555 56.49113281 16.42018555 56.82113281 17.44018555 57.16113281 C16.78018555 58.81113281 16.12018555 60.46113281 15.44018555 62.16113281 C17.75018555 62.16113281 20.06018555 62.16113281 22.44018555 62.16113281 C21.78018555 60.51113281 21.12018555 58.86113281 20.44018555 57.16113281 C21.43018555 56.50113281 22.42018555 55.84113281 23.44018555 55.16113281 C20.03697621 54.48439834 20.03697621 54.48439834 16.44018555 54.16113281 Z M8.44018555 73.16113281 C9.22538651 75.30872746 9.22538651 75.30872746 11.1628418 75.77441406 C13.76601898 76.21646302 16.23689649 76.33031943 18.87768555 76.34863281 C19.80452148 76.3628125 20.73135742 76.37699219 21.6862793 76.39160156 C24.61851928 76.14620843 26.77879943 75.38314858 29.44018555 74.16113281 C22.39255622 71.81192304 15.71250383 72.1222302 8.44018555 73.16113281 Z " fill="#E791BF" transform="translate(45.559814453125,23.8388671875)"/>
<path d="M0 0 C2.9375 2.25 2.9375 2.25 5 5 C5.5775 5.598125 6.155 6.19625 6.75 6.8125 C8.58268243 10.01969425 9.2990744 13.34609103 9 17 C6.25116586 24.3270648 0.78821108 26.79469981 -6 30 C-8.6771211 30.92040638 -10.12527896 31.12232855 -13 31 C-15.91215711 29.127899 -17.30418536 25.96767562 -19 23 C-19.598125 22.2575 -20.19625 21.515 -20.8125 20.75 C-22.36627607 17.15178172 -21.93457578 15.00930679 -20.93359375 11.28515625 C-19.12608392 6.8609167 -16.18146936 3.34591691 -12.11328125 0.8359375 C-8.16340299 -0.72649124 -4.15853682 -0.66833628 0 0 Z M-12 7 C-12 7.33 -12 7.66 -12 8 C-10.329375 8.185625 -10.329375 8.185625 -8.625 8.375 C-5 9 -5 9 -3 11 C-2.66129032 17.32258065 -2.66129032 17.32258065 -4 20 C-6.06640625 20.4140625 -6.06640625 20.4140625 -8.5625 20.625 C-9.38878906 20.69976562 -10.21507813 20.77453125 -11.06640625 20.8515625 C-12.02353516 20.92503906 -12.02353516 20.92503906 -13 21 C-12.34 22.65 -11.68 24.3 -11 26 C-5.83966746 24.58090855 -1.01868639 22.59217486 3 19 C4.58412698 15.66113293 4.58412698 15.66113293 4 12 C2.76007567 9.18503666 1.27574376 7.07203268 -1 5 C-5.66588177 3.25029434 -8.09691559 4.01528839 -12 7 Z M-10 12 C-10.33 13.32 -10.66 14.64 -11 16 C-9.68 16.33 -8.36 16.66 -7 17 C-7 15.68 -7 14.36 -7 13 C-7.99 12.67 -8.98 12.34 -10 12 Z M-17 14 C-16.67 15.65 -16.34 17.3 -16 19 C-15.67 18.01 -15.34 17.02 -15 16 C-15.66 15.34 -16.32 14.68 -17 14 Z " fill="#E791BF" transform="translate(92,48)"/>
<path d="M0 0 C5.08574737 2.39893744 8.40572912 6.06985174 11 11 C12.03402535 14.74834189 12.5017524 16.84892096 10.9375 20.4375 C10.298125 21.283125 9.65875 22.12875 9 23 C8.23816406 24.03253906 8.23816406 24.03253906 7.4609375 25.0859375 C5.99120278 27.0711242 4.50291927 29.03988199 3 31 C-4.21476073 30.83602817 -10.37820749 27.38072428 -16 23 C-18.55313775 18.87735442 -19.54821627 15.98962209 -18.71875 11.09765625 C-15.4333314 1.50923348 -9.5093961 -1.02566676 0 0 Z M-9.75 6.25 C-13.16994221 10.28216271 -13.16994221 10.28216271 -14.1875 15.3125 C-12.65957881 20.05709737 -10.52653815 21.26019251 -6.421875 23.8359375 C-3.93150158 25.03292344 -1.72205332 25.58493513 1 26 C1.66 24.35 2.32 22.7 3 21 C2.36191406 20.95101562 1.72382812 20.90203125 1.06640625 20.8515625 C0.24011719 20.77679688 -0.58617187 20.70203125 -1.4375 20.625 C-2.26121094 20.55539063 -3.08492187 20.48578125 -3.93359375 20.4140625 C-4.61550781 20.27742188 -5.29742187 20.14078125 -6 20 C-7.50662097 16.98675805 -7.17770373 14.31713623 -7 11 C-4.23776722 8.23776722 -1.79293383 8.42143709 2 8 C0.19575137 5.69457119 -1.06937962 4.97586796 -3.875 4 C-7.18909184 3.67018865 -7.18909184 3.67018865 -9.75 6.25 Z M-2 12 C-2.66 13.32 -3.32 14.64 -4 16 C-2.68 16.33 -1.36 16.66 0 17 C0.33 15.68 0.66 14.36 1 13 C0.01 12.67 -0.98 12.34 -2 12 Z M6 14 C5.67 15.65 5.34 17.3 5 19 C5.66 18.67 6.32 18.34 7 18 C6.67 16.68 6.34 15.36 6 14 Z " fill="#E791BF" transform="translate(47,48)"/>
<path d="M0 0 C0.33 0 0.66 0 1 0 C1.04898438 0.63808594 1.09796875 1.27617188 1.1484375 1.93359375 C1.22320312 2.75988281 1.29796875 3.58617187 1.375 4.4375 C1.44460937 5.26121094 1.51421875 6.08492188 1.5859375 6.93359375 C1.72257812 7.61550781 1.85921875 8.29742187 2 9 C2.66 9.33 3.32 9.66 4 10 C4 9.01 4 8.02 4 7 C4.99 6.67 5.98 6.34 7 6 C7.66 5.34 8.32 4.68 9 4 C9 4.66 9 5.32 9 6 C9.99 6 10.98 6 12 6 C11.6875 7.875 11.6875 7.875 11 10 C8 12 8 12 4.4375 11.8125 C1 11 1 11 -1 8 C-1.1875 4.375 -1.1875 4.375 -1 1 C-0.67 0.67 -0.34 0.34 0 0 Z " fill="#E791BF" transform="translate(40,58)"/>
<path d="M0 0 C1.26650391 0.00966797 1.26650391 0.00966797 2.55859375 0.01953125 C3.43128906 0.03628906 4.30398437 0.05304687 5.203125 0.0703125 C6.53537109 0.08384766 6.53537109 0.08384766 7.89453125 0.09765625 C10.08100558 0.12116673 12.26692594 0.15402751 14.453125 0.1953125 C14.123125 0.8553125 13.793125 1.5153125 13.453125 2.1953125 C7.843125 1.8653125 2.233125 1.5353125 -3.546875 1.1953125 C-3.546875 1.8553125 -3.546875 2.5153125 -3.546875 3.1953125 C0.413125 3.1953125 4.373125 3.1953125 8.453125 3.1953125 C8.453125 3.5253125 8.453125 3.8553125 8.453125 4.1953125 C3.833125 4.8553125 -0.786875 5.5153125 -5.546875 6.1953125 C-5.546875 5.2053125 -5.546875 4.2153125 -5.546875 3.1953125 C-6.536875 2.8653125 -7.526875 2.5353125 -8.546875 2.1953125 C-5.55561181 0.47325062 -3.44001787 -0.04648673 0 0 Z " fill="#E791BF" transform="translate(45.546875,23.8046875)"/>
<path d="M0 0 C-0.33 0.99 -0.66 1.98 -1 3 C-3 3.66666667 -5 4.33333333 -7 5 C-7.33 6.65 -7.66 8.3 -8 10 C-8.99 10 -9.98 10 -11 10 C-11 9.01 -11 8.02 -11 7 C-12.32 6.67 -13.64 6.34 -15 6 C-13.6696875 5.62875 -13.6696875 5.62875 -12.3125 5.25 C-8.93200274 4.17254876 -8.93200274 4.17254876 -6.375 1.875 C-4 0 -4 0 0 0 Z " fill="#E791BF" transform="translate(83,87)"/>
<path d="M0 0 C2.70313576 -0.21917317 4.43958382 -0.32851983 6.8125 1.0625 C8.60842137 3.99268751 8.18977574 6.6472953 8 10 C7.34 8.68 6.68 7.36 6 6 C5.34 6.66 4.68 7.32 4 8 C2 6.25 2 6.25 0 4 C0 2.68 0 1.36 0 0 Z " fill="#E791BF" transform="translate(82,56)"/>
<path d="M0 0 C0.74056641 0.00451172 1.48113281 0.00902344 2.24414062 0.01367188 C4.05862899 0.02537825 5.87307534 0.04331102 7.6875 0.0625 C7.6875 1.0525 7.6875 2.0425 7.6875 3.0625 C0.7575 2.7325 -6.1725 2.4025 -13.3125 2.0625 C-13.3125 1.7325 -13.3125 1.4025 -13.3125 1.0625 C-8.8746439 -0.04915232 -4.54293614 -0.05277763 0 0 Z " fill="#E791BF" transform="translate(82.3125,24.9375)"/>
<path d="M0 0 C0.33 0 0.66 0 1 0 C1.36630156 3.93774177 1.30233203 5.56539771 -1 8.875 C-1.66 9.57625 -2.32 10.2775 -3 11 C-3.99 10.67 -4.98 10.34 -6 10 C-5.75 7.625 -5.75 7.625 -5 5 C-3 3.875 -3 3.875 -1 3 C-0.67 2.01 -0.34 1.02 0 0 Z " fill="#E791BF" transform="translate(74,79)"/>
<path d="M0 0 C2.475 0.99 2.475 0.99 5 2 C4.01 2.495 4.01 2.495 3 3 C3 3.66 3 4.32 3 5 C5.31 5.33 7.62 5.66 10 6 C9.67 6.66 9.34 7.32 9 8 C2.25 7.25 2.25 7.25 0 5 C-0.125 2.375 -0.125 2.375 0 0 Z " fill="#E791BF" transform="translate(41,71)"/>
<path d="M0 0 C2.31 0.66 4.62 1.32 7 2 C6.01 2.33 5.02 2.66 4 3 C4.33 3.99 4.66 4.98 5 6 C-0.75 5.25 -0.75 5.25 -3 3 C-1.68 3 -0.36 3 1 3 C0.67 2.01 0.34 1.02 0 0 Z " fill="#E791BF" transform="translate(39,90)"/>
<path d="M0 0 C1.8125 2.125 1.8125 2.125 3 4 C2.401875 3.690625 1.80375 3.38125 1.1875 3.0625 C-2.24263661 1.28133167 -2.24263661 1.28133167 -5.9375 1.5625 C-8.60357285 2.1280306 -9.72275075 1.38261562 -12 0 C-4.39322034 -2.68474576 -4.39322034 -2.68474576 0 0 Z " fill="#E791BF" transform="translate(52,51)"/>
<path d="M0 0 C0.66 0 1.32 0 2 0 C2.66 1.65 3.32 3.3 4 5 C2.02 5.66 0.04 6.32 -2 7 C-1.125 1.125 -1.125 1.125 0 0 Z " fill="#E791BF" transform="translate(84,91)"/>
<path d="M0 0 C1.32 0.99 2.64 1.98 4 3 C3.34 7.29 2.68 11.58 2 16 C1.34 15.67 0.68 15.34 0 15 C0 10.05 0 5.1 0 0 Z " fill="#E791BF" transform="translate(111,43)"/>
<path d="M0 0 C0.33 0 0.66 0 1 0 C2.23076923 6.4 2.23076923 6.4 1.0625 9.4375 C0.711875 9.953125 0.36125 10.46875 0 11 C-0.33 10.34 -0.66 9.68 -1 9 C-3.02463255 8.34786708 -3.02463255 8.34786708 -5 8 C-4.01 7.01 -3.02 6.02 -2 5 C-2 5.66 -2 6.32 -2 7 C-1.34 7 -0.68 7 0 7 C0 4.69 0 2.38 0 0 Z " fill="#E791BF" transform="translate(57,59)"/>
<path d="M0 0 C3 1 3 1 5 4 C5 4.99 5 5.98 5 7 C4.01 7.33 3.02 7.66 2 8 C-0.1519437 4.77208445 -0.20086443 3.71599191 0 0 Z " fill="#E791BF" transform="translate(92,28)"/>
<path d="M0 0 C0.66 0.33 1.32 0.66 2 1 C2 4.3 2 7.6 2 11 C1.01 11 0.02 11 -1 11 C-0.67 7.37 -0.34 3.74 0 0 Z " fill="#E791BF" transform="translate(109,69)"/>
<path d="M0 0 C1.32 0.33 2.64 0.66 4 1 C3.6875 2.9375 3.6875 2.9375 3 5 C2.01 5.33 1.02 5.66 0 6 C0 5.34 0 4.68 0 4 C-0.66 4 -1.32 4 -2 4 C-1.34 2.68 -0.68 1.36 0 0 Z " fill="#E791BF" transform="translate(36,26)"/>
<path d="M0 0 C0.33 1.32 0.66 2.64 1 4 C0.01 4 -0.98 4 -2 4 C-2.33 4.66 -2.66 5.32 -3 6 C-3.66 4.68 -4.32 3.36 -5 2 C-3.35 1.34 -1.7 0.68 0 0 Z " fill="#E791BF" transform="translate(60,80)"/>
<path d="M0 0 C1.65 0 3.3 0 5 0 C5 0.99 5 1.98 5 3 C4.01 3.495 4.01 3.495 3 4 C0.875 3.0625 0.875 3.0625 -1 2 C-0.67 1.34 -0.34 0.68 0 0 Z " fill="#E791BF" transform="translate(14,46)"/>
<path d="M0 0 C-0.33 0.99 -0.66 1.98 -1 3 C-3.31 3.33 -5.62 3.66 -8 4 C-4.5 0 -4.5 0 0 0 Z " fill="#E791BF" transform="translate(83,87)"/>
<path d="M0 0 C0.99 0 1.98 0 3 0 C3 0.66 3 1.32 3 2 C3.99 2.33 4.98 2.66 6 3 C6 3.99 6 4.98 6 6 C3.37812506 4.95125002 2.20628639 4.35068687 0.75 1.875 C0.5025 1.25625 0.255 0.6375 0 0 Z " fill="#E791BF" transform="translate(17,79)"/>
</svg>
